<?xml version="1.0" ?><svg viewBox="0 0 1000 1000" xmlns="http://www.w3.org/2000/svg"><path d="m145.91 187.73a185.79 185.79 0 0 0 7.73 79.58c4.78 14.71 11.47 28.89 20.77 41.24 28.15 37.38 81.09 53.9 125.5 39.16a116.14 116.14 0 0 0 -2.33-23.59 596.55 596.55 0 0 1 87.86 35c3.72 1.83 7.94 4.48 8.05 8.62.07 2.26-1.17 4.33-2.38 6.24a466.16 466.16 0 0 1 -71 86.85 100 100 0 0 1 -10.36-29.37c-49.49 17.31-106.07 10.48-152-14.88s-81.07-68.22-100.75-116.83c-5.65-14-10.12-28.61-10.81-43.65" fill="#18c4ff"/><path d="m614.71 470.38c.23 14.53-7 28-13.89 40.79-66 122.79-105.1 262.4-108 402-.27 13.38-.39 27.91-8.65 38.44-3.67 4.69-9.18 9.81-7.18 15.43s9.45 6.15 15.33 5.77l52.5-3.42c3-.2 6.12-.46 8.46-2.29 2.79-2.18 3.64-6 4.27-9.46 3.13-17.45 5-35.1 7.76-52.62a576 576 0 0 1 37.08-132.2c12.61-30.46 28.12-60.82 29.81-93.76.54-10.67-.32-21.77 3.77-31.63 2.37-5.7 6.25-10.61 10-15.54 39.29-52.26 63.46-120 48.22-183.6" fill="#18c4ff"/><path d="m675.07 551.39q-15.89 18.36-30.16 38c-9.37 12.9-18.71 26.14-26.6 40-4.19 7.37-7.36 15.37-6 24l.32-1.2c-5.92 5.27-7.64 13.11-8.29 20.7-.76 8.8-.79 17.55-2.25 26.3-3.14 18.81-9.92 36.77-17.34 54.25-7.49 17.65-15.69 35-22.14 53.09a390.05 390.05 0 0 0 -15.63 58.29 475.79 475.79 0 0 0 -8 67.52c-.07 1.56 2.29 1.53 2.4 0 2.13-28.12 5.34-56.08 11.72-83.59a375 375 0 0 1 11.63-40.14c4.47-12.68 9.81-25 15.21-37.33 10.46-23.82 21.35-48 25.2-74a164.14 164.14 0 0 0 1.51-18.13c.21-5.57.47-11.28 2.25-16.61a20.93 20.93 0 0 1 3.9-7.07c.64-.74 1.78-1.42 1.9-2.44a17.44 17.44 0 0 0 -.33-2.65 21.3 21.3 0 0 1 0-2.65c.37-6.81 3.63-13.16 7-18.92 14.15-24 30.85-46.63 48.42-68.19q3.25-4 6.58-7.92c.77-.92-.54-2.25-1.33-1.33z" fill="#fff"/><path d="m532 942c-3.79.95-7.67 2.06-11.53 1.51s-7.75-3.28-8.19-7.16a8.73 8.73 0 0 0 -.43-2.86c-.81-1.71-3.07-2-4.95-2.07a122.75 122.75 0 0 0 -15.22.62c-1 7.16-3.1 14-7.54 19.62-3.67 4.69-9.18 9.81-7.18 15.43s9.45 6.15 15.33 5.77l52.5-3.42c3-.2 6.12-.46 8.46-2.29 2.79-2.18 3.64-6 4.27-9.46 1-5.67 1.89-11.36 2.72-17.06-9.16-2.4-18.97-.99-28.24 1.37z"/><path d="m649.6 448.29c8.19 45.68 38.24 218.37 84.12 278.61 23.9 31.39 54.9 56.45 86.22 80.45 29.95 22.94 70.51 41.88 100.46 64.83 11.4 8.73 12.41 21.69 20.37 33.64 4.84 7.28 13.39 16.79 20.07 11.16 2.39-2 3.15-5.31 3.76-8.37l7.88-39.23c1.67-8.3 3.35-16.81 2.07-25.19-1.74-11.41-12.33-14.89-20.15-21.44-8.76-7.33-15-16.55-21.91-25.48-7.1-9.14-14.77-17.94-22.11-26.92-21.75-26.6-44.28-52.56-63.07-81.39-14.32-22-34.38-42.2-54.13-59.44-7.89-6.89-16.43-13.86-20.24-23.63-2.7-6.94-2.71-14.6-2.74-22-.21-62.15-5.81-128.78-44.78-177.19" fill="#18c4ff"/><path d="m725.42 407.6a1 1 0 0 0 0-1.91 1 1 0 0 0 0 1.91z"/><path d="m669.5 552.87c2.55 13 5.75 25.92 9.06 38.76s6.91 25.93 10.84 38.75c7.2 23.46 15.33 46.83 26.13 68.9a170.3 170.3 0 0 0 16.93 28.36c1.12 1.48 3.66 0 2.52-1.48a163.37 163.37 0 0 1 -15.21-24.92 335.51 335.51 0 0 1 -13.77-31.33c-9.35-24.28-16.83-49.28-23.6-74.39-3.86-14.34-7.3-28.8-11.09-43.16-.32-1.2-2.07-.69-1.84.51z"/><path d="m618.33 306.51c-11.53 6.37-24.08 14-27.71 26.65-1.2 4.21-1.28 8.65-1.3 13-.15 38.94 4.44 78.63 20.57 114.08 1.56 3.42 3.32 6.92 6.29 9.24 2.71 2.12 6.18 3 9.58 3.56 16.41 2.54 33-2.59 48.66-8 15.54-5.31 31.08-11 45.18-19.38 6.33-3.77 12.49-8.24 16.43-14.47 5.45-8.62 5.93-19.39 5.87-29.59a471.67 471.67 0 0 0 -4-57.2c-1.36-10.57-3-21.17-6.54-31.23-3.83-11-10.17-21.66-20.06-27.86-16.84-10.56-39.66-5.41-55.92 6" fill="#fff"/><path d="m600.55 318.2c-10 7.6-16.55 18.83-22.8 29.75l-11.42 20c-2 3.53-4.08 7.2-4.39 11.24-.33 4.4 1.47 8.7 3.89 12.39 6.4 9.75 17 16 27.87 20.19 6.53 2.49 14 4.32 20.36 1.46 5.24-2.36 8.68-7.41 11.84-12.22 7-10.69 14.06-21.41 19.79-32.85" fill="#fff"/><path d="m600.11 317.44c-10.26 7.62-17 18.62-23.29 29.49-3.83 6.61-7.69 13.2-11.49 19.82a40.18 40.18 0 0 0 -4.25 9.05 17.1 17.1 0 0 0 .17 9.59c1.8 5.92 6 11.13 10.49 15.23a61.46 61.46 0 0 0 15.31 9.91c5.83 2.72 12.13 5.25 18.62 5.57a19.88 19.88 0 0 0 16.39-7.36 75.85 75.85 0 0 0 5.89-8.22c2.25-3.43 4.5-6.87 6.7-10.34a217.07 217.07 0 0 0 12.19-21.39c.74-1.52-1.5-2.87-2.3-1.34a352.06 352.06 0 0 1 -21.22 34.75c-3.22 4.74-7.05 9.37-12.93 10.62-6.17 1.31-12.69-1-18.33-3.34-10.46-4.29-21.09-11-26.49-21.27a16.82 16.82 0 0 1 -2.17-9.06c.24-3.08 1.64-5.94 3.1-8.61 3.43-6.26 7-12.44 10.54-18.66 6.69-11.85 13.23-24.49 24.13-33.06.77-.61-.26-2-1.06-1.38z"/><path d="m588.85 369.61a239.55 239.55 0 0 0 5.2 46.37 210.47 210.47 0 0 0 14.13 44.23 31.69 31.69 0 0 0 5.29 8.9 17.71 17.71 0 0 0 9 4.89c7.6 1.81 15.69 1.52 23.36.39a142 142 0 0 0 23.32-5.91c7.5-2.46 15-5.06 22.35-7.88a211.14 211.14 0 0 0 21.4-9.43c6.36-3.29 12.74-6.94 18.08-11.76a35 35 0 0 0 10.6-17.66c1.75-6.95 1.85-14.19 1.79-21.32a465 465 0 0 0 -3.25-50.31c-1.8-15.38-3.82-31.23-10.56-45.35-5.71-12-15.28-22.09-28.43-25.49-12.85-3.28-26.53-.28-38.13 5.66a68.44 68.44 0 0 0 -8.32 5.14c-1.62 1.14-.07 3.83 1.57 2.68 10.32-7.23 23.08-11.76 35.75-11.38a37.53 37.53 0 0 1 17.59 4.78 40.52 40.52 0 0 1 13.51 13.27c7.85 12.09 10.77 26.66 12.76 40.72a468 468 0 0 1 4.29 48.17 222.24 222.24 0 0 1 .08 22.65c-.44 6.79-1.77 13.71-5.45 19.53s-9.16 9.83-14.84 13.3a156.23 156.23 0 0 1 -19.5 10c-6.93 3-14 5.6-21.15 8.08-7.3 2.55-14.62 5.09-22.1 7.06a86.91 86.91 0 0 1 -22.93 3.3c-6.69-.06-15.07-.57-19.46-6.35a42.5 42.5 0 0 1 -4.7-8.89c-1.54-3.52-3-7.1-4.28-10.71a217.13 217.13 0 0 1 -6.45-21 299.77 299.77 0 0 1 -7.46-44.55c-.36-3.68-.69-7.37-1-11.06-.12-1.26-2-1.32-2 0z"/><path d="m618.33 305.5c-1.51-.14-3.43 1.14-4.7 1.85-1.54.86-3 1.8-4.52 2.75a73.41 73.41 0 0 0 -8.66 6.31 42.66 42.66 0 0 0 -7 7.43 45.63 45.63 0 0 0 -2.65 4.25 11 11 0 0 0 -1.76 5.07 1.57 1.57 0 0 0 2.9.78 15.49 15.49 0 0 0 1-2.33c.35-.79.59-1.62.94-2.42a21.48 21.48 0 0 1 2.35-3.94 38.23 38.23 0 0 1 6.62-6.95 69.58 69.58 0 0 1 8.12-5.74c1.4-.87 2.82-1.67 4.23-2.51s3.3-1.68 4-3a1 1 0 0 0 -.86-1.51z"/><path d="m697.27 394.76a378.56 378.56 0 0 1 -25 36.1c-9.29 11.9-19.63 23.51-33.07 30.39-20.87 10.66-46.58 8.19-67.94-1.45s-39.11-25.68-55.75-42.18a154.77 154.77 0 0 1 -16.06-17.81c-7.37-10-13.47-22.23-25-26.63-4.06-1.54-8.45-1.94-12.66-3a40 40 0 0 1 -18.82-11c-2.76-2.89-5.21-6.78-4.24-10.66s7.16-5.8 9-2.24c-4-1.82-6.59-7.15-4.35-11s9.43-3.29 10.2 1.09c-3.52-1.07-5.1-6.06-2.83-9s7.49-2.57 9.38.59c-3.11-3.36-6-9.28-2.16-11.77 1.71-1.11 4-.73 5.95-.28a149.74 149.74 0 0 1 23.65 7.5c-2.76 1.52-6-2.45-4.87-5.38s4.75-4.15 7.9-4c7.33.36 13.38 6.07 17.13 12.39s5.91 13.48 9.71 19.77c10 16.51 29.21 24.45 46.73 32.52a442.29 442.29 0 0 1 55.83 30.86c-.38 1.3-2.64.6-2.8-.75s.89-2.49 1.85-3.44c9.38-9.19 21.65-33.08 31-42.27" fill="#fff"/><path d="m487.11 322.64c-2.35 1.08-4.22-2.49-3.35-4.37 1-2.22 3.9-3 6.14-3 5.44 0 10.2 3.51 13.55 7.51 3.95 4.71 6.21 10.58 8.68 16.13a58.61 58.61 0 0 0 9.11 14.94c7.12 8.18 16.61 13.85 26.22 18.63 10.81 5.37 21.94 10 32.67 15.57a440.38 440.38 0 0 1 39.17 22.79l-.51-2c-.29.66.16-.16.23 0s-.21 0-.21-.07-.16-.22-.16-.23.11-.37.17-.51a8.12 8.12 0 0 1 1.82-2.11c1.12-1.14 2.16-2.36 3.17-3.61 2.37-2.93 4.56-6 6.69-9.15 4.56-6.7 8.83-13.6 13.55-20.19a68.89 68.89 0 0 1 7.12-8.77c1.38-1.36-.74-3.48-2.12-2.12-6 6-10.55 13.45-15.16 20.52s-9.18 14.85-15.14 21.07c-1.54 1.61-4 3.92-2.62 6.39a2.93 2.93 0 0 0 5.29-.07 1.45 1.45 0 0 0 -.66-1.63q-18.15-11.74-37.35-21.72c-11.58-6-23.59-11.06-35.2-17-10.21-5.15-20.39-11.41-27.21-20.75-7.52-10.23-9.36-24.21-20-32.16-4.59-3.45-12.06-5.92-17.13-2a5.53 5.53 0 0 0 -1.85 7c1.12 2.2 3.62 3.61 6 2.4 1-.52.12-2-.88-1.51z"/><path d="m696.52 394.32q-9.66 15.26-20.59 29.68c-6.62 8.74-13.54 17.43-21.65 24.85-8 7.27-17.19 12.89-27.67 15.66a75.17 75.17 0 0 1 -31.81 1.05c-21.88-3.75-41-15.64-57.71-29.81-8.53-7.25-16.61-15.05-24.44-23a130.58 130.58 0 0 1 -11.78-13.43c-2.88-3.89-5.47-8-8.29-11.93a56.28 56.28 0 0 0 -9.19-10.48 30.14 30.14 0 0 0 -13-6.43c-5.42-1.25-10.75-2.06-15.77-4.6a34.79 34.79 0 0 1 -12.28-9.88c-1.52-2.05-2.72-4.54-2.16-7.14.4-1.88-2.47-2.68-2.9-.79-1.25 5.56 2.56 10.39 6.42 13.93a42.28 42.28 0 0 0 13.84 8.41c5.42 2 11.31 2.19 16.69 4.28a30.27 30.27 0 0 1 11.32 8.44 114.76 114.76 0 0 1 8.71 11.75 129.54 129.54 0 0 0 10 13 310.62 310.62 0 0 0 25 24.65c16.66 15 35.59 28.51 57.56 34.21a84 84 0 0 0 32.86 2.14 65.32 65.32 0 0 0 29.79-12.31c8.79-6.55 16.07-14.8 22.79-23.41a337.52 337.52 0 0 0 21-30q2.44-3.94 4.79-7.94a.87.87 0 0 0 -1.51-.88z"/><path d="m621.14 293.65a98.18 98.18 0 0 0 -8.14 10.71 5.9 5.9 0 0 0 -1 2.25 5.77 5.77 0 0 0 .1 1.85l2.12 13.13c.16 1 .82 2.37 1.8 2a1.71 1.71 0 0 0 .72-.59 17.9 17.9 0 0 1 2.91-3.34c1.19-.88 3-1.24 4.12-.32a10 10 0 0 1 1.5 1.95 2 2 0 0 0 2.13.84 2.43 2.43 0 0 0 1.08-1.66 53.54 53.54 0 0 1 4.52-10.37 20.52 20.52 0 0 0 1.75-3.51c1.22-3.65-.11-7.6-1.42-11.21" fill="#fff"/><path d="m620.48 293q-3 3.28-5.76 6.83c-1.55 2-4 4.54-4.12 7.24a22.78 22.78 0 0 0 .54 4.19c.26 1.62.53 3.24.79 4.86l.72 4.38a6.86 6.86 0 0 0 1.19 3.58 2.37 2.37 0 0 0 2.69.79c1.14-.45 1.79-1.74 2.52-2.65s1.73-2.05 3-2 1.67 1.58 2.45 2.36c1.92 1.91 4.31 1 5.16-1.36a74.48 74.48 0 0 1 3.17-8c1.43-2.86 3.36-5.46 3.64-8.73s-.81-6.44-1.9-9.44c-.58-1.61-3.18-.91-2.59.72a24.43 24.43 0 0 1 1.86 7.2c.11 2.57-1 4.51-2.17 6.68a56.58 56.58 0 0 0 -3.18 6.67q-.67 1.68-1.23 3.42c-.07.21-.23 1-.45 1.1s-.83-.84-1-1.07a4.44 4.44 0 0 0 -5.06-2.1c-2.11.56-3.38 2.29-4.64 3.93-.13.16-.48.44-.5.62s.17.27.23.08-.37-1.11-.4-1.29c-.24-1.37-.44-2.76-.66-4.13-.41-2.6-.79-5.2-1.25-7.79a7.42 7.42 0 0 1 -.25-2.24 4.7 4.7 0 0 1 .81-1.81c.73-1.17 1.5-2.34 2.27-3.49q2.52-3.74 5.38-7.21c.75-.91-.48-2.2-1.31-1.31z"/><path d="m576.84 230.66c-3.46 10.43 4 22.66-.9 32.51a7.81 7.81 0 0 0 -1.08 2.85c-.13 2.08 1.65 3.34 3.77 4a6.13 6.13 0 0 1 4.16 4.21c1 3.83 2.47 12.1 4.33 15.58 2.46 4.57 3.85 6.12 8.75 7.83s12.62-1.1 17.75-2.39c1.3-.33 2.77-.66 3.93 0a5.09 5.09 0 0 1 1.71 2q3.78 6.6 7.36 13.29a6.57 6.57 0 0 0 2.47 3c1.48.78 3.29.32 4.87-.24a47.73 47.73 0 0 0 27.21-24.89 4.82 4.82 0 0 0 .6-3.29 5.5 5.5 0 0 0 -2.25-2.54c-11.27-8.59-16.14-23-20.4-36.5l-4.12-12.86c-1.92-6.1-3.9-12.31-7.57-17.55s-9.38-9.45-15.77-9.72a30.7 30.7 0 0 0 -6.75.69c-6.28 1.1-12.72 2.27-18.2 5.53s-9.87 9.14-9.51 15.51" fill="#fff"/><path d="m575.91 230.4c-1.65 5-1 10.2-.33 15.28s1.63 10.48-.17 15.4c-.84 2.29-2.64 4.35-1.54 6.9 1 2.36 3.34 2.67 5.34 3.8s2.35 3.22 2.79 5.22c.51 2.25 1 4.52 1.56 6.76 1 4.05 2.46 8.11 5.29 11.31a14.9 14.9 0 0 0 11.42 4.5 36.91 36.91 0 0 0 7.66-1.33 72.62 72.62 0 0 1 7.23-1.92c1.74-.26 2.35.74 3.13 2.11s1.61 2.84 2.41 4.27c1.6 2.85 3.15 5.72 4.71 8.59 1.23 2.26 2.84 4.15 5.63 4.08 2.61-.07 5.28-1.4 7.61-2.48a49.39 49.39 0 0 0 22-20.36c1.16-2.08 3-4.83 2.53-7.31s-3.29-3.92-5-5.51c-7.81-7.08-12.06-17.11-15.4-26.89-1.89-5.54-3.6-11.15-5.37-16.73s-3.44-11.33-6.11-16.6a29.32 29.32 0 0 0 -10.49-12 19.38 19.38 0 0 0 -7-2.65 27.79 27.79 0 0 0 -9.13.53c-10.19 1.79-22.65 4.49-27.14 15.14a15.81 15.81 0 0 0 -1.25 7.12c.08 1.3 2.07 1.32 2 0-.11-4.89 2.7-9.31 6.32-12.41 4.11-3.52 9.5-5.16 14.7-6.27s11.22-2.77 16.55-1c4.67 1.56 8.51 5.15 11.15 9.22 3 4.62 4.75 9.88 6.4 15.1 1.75 5.59 3.46 11.19 5.25 16.77 3 9.29 6.32 18.8 12.26 26.66a42.48 42.48 0 0 0 4.58 5.3c.88.84 1.8 1.63 2.75 2.38s2.37 1.5 2.24 2.88a10.34 10.34 0 0 1 -1.4 3.41c-.58 1.12-1.2 2.22-1.87 3.29a45.26 45.26 0 0 1 -4.16 5.66 47.15 47.15 0 0 1 -10.93 9.33 44.56 44.56 0 0 1 -6.41 3.29c-2.09.87-5.29 2.51-7 .25a26 26 0 0 1 -1.86-3.29c-.77-1.43-1.56-2.87-2.35-4.3-1.45-2.64-2.82-5.4-4.47-7.93-1.56-2.38-3.76-2.73-6.4-2.11-2.23.51-4.41 1.22-6.62 1.78a30.49 30.49 0 0 1 -7.28 1.18 12.77 12.77 0 0 1 -6-1.49c-3.15-1.59-5.13-4.85-6.27-8.1-1.41-4-2.14-8.24-3.15-12.36a8.12 8.12 0 0 0 -3.2-5.08c-1.41-1-4.79-1.3-5-3.42-.09-1.1.79-2.24 1.21-3.22a16.51 16.51 0 0 0 1.09-3.52 25.53 25.53 0 0 0 .3-6.87c-.38-4.89-1.63-9.67-1.85-14.57a21.5 21.5 0 0 1 .82-7.27c.36-1.19-1.47-1.68-1.86-.51z"/><path d="m587.09 253.6v-.07l-.16.2.08-.09-.21.17.12-.07-.27.11a2.28 2.28 0 0 0 .36-.15.24.24 0 0 1 .11-.06l-.28.11.2-.05h-.32.16-.32a.67.67 0 0 1 .24.07l-.29-.13.21.13-.25-.2a2.5 2.5 0 0 1 .23.23l-.2-.25a1.94 1.94 0 0 1 .21.34l-.13-.31a1.38 1.38 0 0 1 .08.29l-.05-.35a1.07 1.07 0 0 1 0 .25v-.35a.73.73 0 0 1 -.05.2l.14-.32-.09.16.21-.27-.1.1.27-.21-.12.06.33-.13h-.17l.36-.05h-.18l.36.05-.18-.05.33.14a.35.35 0 0 1 -.12-.07l.27.21a.27.27 0 0 1 -.07-.08 2.27 2.27 0 0 0 -.35-.26l.27.21a.46.46 0 0 1 -.07-.07l.2.26-.2-.26-.26-.2-.3-.12a1 1 0 0 0 -.51 0 .56.56 0 0 0 -.31.09.61.61 0 0 0 -.28.16.63.63 0 0 0 -.23.23.94.94 0 0 0 -.23.43 1.24 1.24 0 0 0 -.07.5 1.4 1.4 0 0 0 .47 1.07 1.8 1.8 0 0 0 .72.42 2 2 0 0 0 .53.1 2 2 0 0 0 1-.24 1.76 1.76 0 0 0 .75-.73 2.13 2.13 0 0 0 .2-.55 2 2 0 0 0 0-.6 2.21 2.21 0 0 0 -.11-.57 3 3 0 0 0 -.24-.55 2.67 2.67 0 0 0 -.83-.81 2.27 2.27 0 0 0 -1.11-.32 1.94 1.94 0 0 0 -1.32.52 1.34 1.34 0 0 0 -.41.86 1.32 1.32 0 0 0 .05.65 1.2 1.2 0 0 0 .25.42l.19.15a.77.77 0 0 0 .36.12.57.57 0 0 0 .26 0 .51.51 0 0 0 .24-.07.93.93 0 0 0 .46-.39z"/><path d="m583.09 251a1.64 1.64 0 0 0 1-.4 1.18 1.18 0 0 0 .26-.24s-.3.21-.14.11l.15-.1.33-.18-.4.17h.06l-.46.06a3.72 3.72 0 0 0 .66-.08 3.64 3.64 0 0 0 .57-.25 4.09 4.09 0 0 1 .47-.23l-.47.2a8.66 8.66 0 0 1 1.52-.55l-.59.08h.06a2.5 2.5 0 0 0 1.61-.66 2.27 2.27 0 0 0 -.23-3.39 2.17 2.17 0 0 0 -2-.41 9.41 9.41 0 0 0 -2.06 1 16.26 16.26 0 0 0 -1.84 1.37 2.32 2.32 0 0 0 -.68 1.63 2.43 2.43 0 0 0 .5 1.4 2.27 2.27 0 0 0 3 .6 17.12 17.12 0 0 1 3.68-2.19l-.55.23a14.2 14.2 0 0 0 1.71-.69l-3.17-3.18-.19.44a2.53 2.53 0 0 0 -.29 1 2.06 2.06 0 0 0 .45 1.26 2.14 2.14 0 0 0 2.2.75l.45-.09a2.34 2.34 0 0 0 1.62-2.85 2.36 2.36 0 0 0 -1.07-1.39 2.6 2.6 0 0 0 -1.78-.23 5.34 5.34 0 0 0 -1.14.46l-.65.3c-.41.2-.83.4-1.23.62a19.49 19.49 0 0 0 -2.37 1.52l2.8 3.63c.17-.16.35-.3.54-.45l-.47.36c.36-.27.73-.53 1.12-.77s.81-.41 1.19-.65l-2.75-3.57a.94.94 0 0 1 -.1.1l.45-.35a13.68 13.68 0 0 0 -1.48 1.12 5.22 5.22 0 0 0 -.46.48 4.1 4.1 0 0 0 -.46.57 3.53 3.53 0 0 0 -.24.69l.17-.41a5.64 5.64 0 0 0 -.46 1.15 2.08 2.08 0 0 0 0 1 1.25 1.25 0 0 0 1.21 1z"/><path d="m616.73 244.17a2.83 2.83 0 0 0 -1.4 1.13 3.63 3.63 0 0 0 -.51 1.73 4.33 4.33 0 0 0 0 .88 1.76 1.76 0 0 0 .46 1.09 1.44 1.44 0 0 0 1.34.38 1.29 1.29 0 0 0 1-.95 1.37 1.37 0 0 0 -1-1.6 1.57 1.57 0 0 0 -1.69.66 1.08 1.08 0 0 0 0 1.07 1 1 0 0 0 .91.52 1.32 1.32 0 0 0 .59-.15l.15-.08-.26.11.15-.05h-.28.1-.28.08l-.26-.11.08.05-.21-.17.06.06-.17-.22a.56.56 0 0 1 0 .08l-.11-.26v-.29.05-.29a.24.24 0 0 1 0 .08l.11-.26.17-.22.21-.17a.1.1 0 0 1 -.05 0l.25-.11h-.06.28-.11.29-.11l.26.1h-.06l.22.16-.07-.06.17.21a.47.47 0 0 1 -.07-.12l.1.26a2.16 2.16 0 0 1 -.1-.44v.28c0-.17 0-.34-.07-.51v.28a3.7 3.7 0 0 1 0-.94v.27a3.25 3.25 0 0 1 .17-.61l-.1.23.13-.26.08-.12c.1-.14-.15.17 0 0a1 1 0 0 1 .21-.2c-.05 0-.17.13-.05 0l.14-.09a.87.87 0 0 0 .37-1.1.89.89 0 0 0 -1-.52z"/><path d="m431.57 271.16c-61.75 15.14-126.02 15.84-189.57 15.42-58.32-.35-117.57-1.67-173.27-19-10.05-3.12-20.12-6.84-28.45-13.28s-14.76-16-15.22-26.52c-.47-10.68 5.27-20.87 13-28.21s17.43-12.28 26.94-17.14c5.81-3 12-6 18.51-5.48s13 6.24 11.9 12.67c-7.41-.23-14.02-5.62-17.41-12.29s-4-14.33-3.81-21.78c.67-27.25 13.19-55.43 36.81-69s58.31-7.9 71.9 15.73c-2.08-32.13 22.11-62.95 53-72s65.84 2.14 88.61 24.9 33.89 55.6 33.72 87.82c5.59-13.45 23-20.48 36.4-14.65s20.07 23.42 14 36.66c3.38-12.48 18.86-19.29 31.13-15.21s20.39 16.87 21.18 29.77-4.81 25.6-13 35.57c7.64-7.78 22.5-3 26.81 7s0 22.07-7.58 29.9-17.86 12.36-27.86 16.7"/><path d="m431.27 270.05c-34.69 8.42-70.27 12.35-105.88 14-35.39 1.72-70.95 1.47-106.39.95-35.11-.56-70.36-2.14-105-8.17a329.56 329.56 0 0 1 -50.5-12.55c-14.52-5-30.06-13.17-35.34-28.68s4.49-30.6 16.7-39.6c6.51-4.81 13.76-8.51 21-12.18 6.91-3.52 15.77-8 23.21-3.33 3 1.85 5.38 5.07 4.88 8.72l1.51-1.15c-7.21-.36-13.14-5.57-16.23-11.84-3.53-7.14-3.76-15.52-3.35-23.32a90.26 90.26 0 0 1 11-39.13c6.47-11.55 16-21.69 28-27.54a56.36 56.36 0 0 1 34.87-4.41c13 2.5 25 9.62 31.79 21.24a1.62 1.62 0 0 0 3-.81c-2.11-36.17 28-68.06 63-72.72 18.52-2.46 37.62 1.81 53.94 10.71 16.78 9.16 30.17 23.23 39.37 39.93 10.53 19.13 15.45 41.05 15.36 62.82 0 1.87 2.93 2.93 3.76 1 4.21-9.73 14.48-15.86 25-15.65 10.9.21 19.67 8.08 22.7 18.31a25.21 25.21 0 0 1 -.82 17.29l3.78 1.59c3.6-12.52 19.39-18.07 30.78-12.92 13.61 6.16 19.43 22.33 17 36.36-1.6 9.16-6 17.62-11.81 24.8-1.49 1.85.9 4.42 2.67 2.67 7.59-7.47 21-1.64 24.29 7.39 4.69 12.84-4.37 26-14.51 33-6.32 4.4-13.42 7.57-20.46 10.63-1.67.72-.23 3.18 1.44 2.45 13.88-6 29.17-12.89 35.56-27.68 2.75-6.37 3.6-13.73 1-20.3a20.43 20.43 0 0 0 -12.19-11.35c-6.08-2.2-13-1.41-17.77 3.17l2.67 2.67c11.21-13.58 18-32.32 10.85-49.4-6.09-14.52-21.4-24.4-37.09-19-7.67 2.66-14.08 8.43-16.36 16.35-.63 2.19 2.81 3.79 3.78 1.6 5-11.29 2.15-24.93-6.45-33.7-8.81-9-22.31-10.23-33.37-4.85a29.19 29.19 0 0 0 -14.18 14.58l3.76 1c.05-40-17.14-81.53-52.12-103.12-16.42-10.14-36-15.65-55.37-14.34a77.34 77.34 0 0 0 -49.22 22.1c-14.44 14.24-23.47 34.16-22.23 54.62l3-.81c-13.26-22.62-44.19-29-67.46-19.49-27.29 11.14-42 41.2-44 69.29-.63 9-.33 18.67 3.84 26.88 3.63 7.13 10.55 12.65 18.71 13.07a1.55 1.55 0 0 0 1.53-1.2c1-6.77-4.19-12.39-10.48-14.16-8.2-2.3-16.57 2.28-23.63 5.9-14.27 7.3-29.52 15.82-36.33 31.17a32.19 32.19 0 0 0 -2 21.47 39.69 39.69 0 0 0 12 18.79c12.82 11.59 31 16.15 47.36 20.32 35.8 9.16 72.82 12.43 109.66 13.67 37.59 1.26 75.35 1.35 112.94.21s75.23-4.23 112.05-12q6.75-1.44 13.45-3.08a1.15 1.15 0 0 0 -.61-2.22z"/><g fill="#fff"><path d="m35.45 234c-3.08-8.32 1.94-16.4 8.08-21.73a75.91 75.91 0 0 1 10.4-7.39c2-1.19 4-2.32 6-3.39 1-.5 1.91-1 2.87-1.45.55-.27 1.09-.57 1.66-.79a3 3 0 0 1 .83-.27c-.18-.32 0-.57.56-.72l1.21 1.59a9.16 9.16 0 0 1 7.86-5.69c1.57-.12 1.61-2.54 0-2.48a11.62 11.62 0 0 0 -10.29 7.5 1.27 1.27 0 0 0 1.22 1.59 2.06 2.06 0 0 0 1.65-3c-.82-1.76-2.88-1.34-4.31-.69a90.85 90.85 0 0 0 -12.26 6.77c-6.85 4.45-14.14 9.79-17.14 17.7a17 17 0 0 0 .11 13.11c.4.87 1.89.25 1.55-.65z"/><path d="m148 91c-9.32-2.83-19 1-27.65 4.33a51.71 51.71 0 0 0 -12 6 38.8 38.8 0 0 0 -9.13 9.82 69.22 69.22 0 0 0 -10.65 25.35c-.74 3.71-1.83 8.35.17 11.86a5.29 5.29 0 0 0 8 1.55c1.12-.9 2-2.76 1.16-4.15-1.14-1.89-3.48-.65-4.41.69-1.34 1.94-1.39 4.92-1.49 7.19a31.78 31.78 0 0 0 .78 8.25c.34 1.49 2.59.86 2.29-.63a29.19 29.19 0 0 1 0-12.17 3.36 3.36 0 0 1 .33-1c0-.09.67-.71.66-.78s-.46-.28-.44-.29 0 .15 0 .18-.17.37-.3.51a2.92 2.92 0 0 1 -2.84.64c-3-1-2.2-6-1.84-8.2a68.54 68.54 0 0 1 2.59-10.76 64.68 64.68 0 0 1 10.47-19.9 31.33 31.33 0 0 1 8.2-7.41 63 63 0 0 1 10-4.75c8-3.16 17-7 25.73-4.71a.86.86 0 0 0 .37-1.62z"/><path d="m112.46 173.59v-.93a.92.92 0 0 0 -.11-.46.85.85 0 0 0 -.24-.38.93.93 0 0 0 -.38-.25 1 1 0 0 0 -.46-.1h-.32a1.21 1.21 0 0 0 -.52.31l-.19.24a1.25 1.25 0 0 0 -.16.6v.93a1 1 0 0 0 .1.46 1.13 1.13 0 0 0 .63.63 1 1 0 0 0 .46.1h.31a1.18 1.18 0 0 0 .53-.31l.18-.24a1.13 1.13 0 0 0 .17-.6z"/><path d="m158.31 208.25c-4.5-15-2.64-32.91 9.26-44.07a32.36 32.36 0 0 1 19.43-8.87 25 25 0 0 1 19.09 6.77c5.55 5.24 9 13 7.55 20.67l2.34-.31c-4.08-5.51-3.69-13.4.31-18.85 4.14-5.62 11.71-6.84 17.9-4.09a15 15 0 0 1 7.91 7.75l2.65-.73c-4.15-10-2.35-21.29 3.16-30.41a37.39 37.39 0 0 1 25.94-17.93c11.42-1.8 23.22 1.84 32.56 8.39a50.62 50.62 0 0 1 20 30.17c3.42 14.62 1.28 30.35-5 43.92-.73 1.57 1.21 3.42 2.55 2 4.33-4.68 11.76-8.15 18.15-6 2 .67 4.88 2.72 3.79 5.17-.54 1.2-3.12 3.66-4.33 1.9-1-1.5-3.5-.08-2.46 1.43 3.57 5.22 11.46-.44 10.05-5.77-1.85-7-11.17-7.3-16.75-5.66a23.86 23.86 0 0 0 -10.75 6.65l2.56 2a73.41 73.41 0 0 0 6.26-41.65c-2-13.2-8.46-25.55-18.83-34.07-9.58-7.88-22-12.68-34.52-11.84a39.83 39.83 0 0 0 -29.6 16.57c-6.65 9.1-9.84 21.19-6.74 32.23a32.94 32.94 0 0 0 1.44 4c.6 1.41 3.11.38 2.51-1.06a18.79 18.79 0 0 0 -19.09-11c-8.26.88-14.06 7.68-15 15.72a17.54 17.54 0 0 0 3.12 12.53c.59.78 2.12.9 2.34-.3 2.8-15.25-10.3-29.61-25.27-30.51a33.25 33.25 0 0 0 -21.84 7 37.72 37.72 0 0 0 -13.28 19.87 51.25 51.25 0 0 0 .74 28.88c.36 1.15 2.16.66 1.81-.5z"/><path d="m197.81 97.17a51 51 0 0 1 18.87-41.06 29.21 29.21 0 0 1 5.59-3.78c1-.46 2.51-1 3.35 0 .32.35.73 1.25.2 1.59l1.76.46c-1.49-3.26 3.1-6.51 5.34-8a35.13 35.13 0 0 1 9-4.38 36.14 36.14 0 0 1 20-.59 1.16 1.16 0 0 0 .62-2.24 37.38 37.38 0 0 0 -33.3 6.68c-2.94 2.33-5.7 6-3.93 9.85a1.3 1.3 0 0 0 1.76.46 3.45 3.45 0 0 0 1-4.69 4.47 4.47 0 0 0 -5.15-2c-2.45.55-4.66 2.31-6.61 3.79a51.12 51.12 0 0 0 -5.09 4.43 52.83 52.83 0 0 0 -13.64 23.92 50.55 50.55 0 0 0 -1.58 15.56c.07 1.15 1.85 1.17 1.8 0z"/><path d="m390.59 138.84a22.15 22.15 0 0 0 -17.12-.49 24.32 24.32 0 0 0 -7.57 4.5 20.7 20.7 0 0 0 -2.9 3.15 11.11 11.11 0 0 0 -2.3 4c-.21 1 1.14 2.08 1.92 1.12s1.32-2.26 2.08-3.32a19.32 19.32 0 0 1 2.64-2.93 21.93 21.93 0 0 1 6.89-4.25 21.64 21.64 0 0 1 15.7-.13c.89.34 1.52-1.15.65-1.55z"/><path d="m437.49 156.11a22.65 22.65 0 0 0 -21.65 16.23 1 1 0 0 0 2 .55 20.9 20.9 0 0 1 19.66-15 .88.88 0 0 0 0-1.75z"/></g><path d="m594.32 274v-.06s0 .08 0 .13v.23.49s0 .2 0 0 0 0 0 0l-.06.25-.06.22c0 .05-.1.21-.09.25s.11-.23 0-.1a1.17 1.17 0 0 0 0 .11l-.11.21c0 .07-.1.14-.14.21l-.07.09c.18-.26.11-.14.06-.08a3.89 3.89 0 0 1 -.34.36 1.56 1.56 0 0 0 -.2.16.27.27 0 0 0 -.08.07c-.16.13.22-.17.06-.05a1.16 1.16 0 0 0 -.51.66 1.09 1.09 0 0 0 1.61 1.23 4 4 0 0 0 1.7-2.3 4.17 4.17 0 0 0 .2-1.31 3.74 3.74 0 0 0 -.36-1.47.87.87 0 0 0 -.52-.4.92.92 0 0 0 -.57.05.89.89 0 0 0 -.51 1z"/><path d="m611 244.66c-.74-3.17 2.25-6.47 5.5-6.45s6.09 2.9 6.51 6.13a9.35 9.35 0 0 1 -3.93 8.42 36.73 36.73 0 0 0 17.83 12.82c3.26 1.07 6.83 1.68 10.11.68a4.88 4.88 0 0 0 2.79-1.81 6.16 6.16 0 0 0 .76-2.32l2-10.49a77.9 77.9 0 0 0 1.35-9.22 50.73 50.73 0 0 0 -1.1-13.28 46.81 46.81 0 0 0 -3.21-10.3 34.9 34.9 0 0 0 -26.94-19.66c-6.5-.8-13.11.29-19.41 2.09a47.73 47.73 0 0 0 -13.89 6.12 32.84 32.84 0 0 0 -10.62 12c-1.48 2.87-2.54 6.1-2.08 9.29a136.12 136.12 0 0 1 17.33-11.39 6.26 6.26 0 0 1 3.55-1.09c2.17.22 3.51 2.58 3.69 4.74s-.41 4.34-.33 6.51a10.65 10.65 0 0 0 4.83 8.4c1.23.78 2.67 1.36 3.47 2.58 1.14 1.78.51 4.31 1.74 6"/><path d="m611.86 244.42a4.64 4.64 0 0 1 2.85-4.74 4.83 4.83 0 0 1 5.43 1.33c3.1 3.22 1.59 8.2-1.69 10.66a1.28 1.28 0 0 0 -.45 1.73 38.39 38.39 0 0 0 12.74 11c5 2.66 11.75 5.13 17.38 2.94a5.77 5.77 0 0 0 3.12-2.56 16.63 16.63 0 0 0 1.16-4.69c.63-3.34 1.27-6.69 1.88-10a56.52 56.52 0 0 0 1.11-10.53 55.36 55.36 0 0 0 -1-9.86c-1.12-5.91-3-11.73-6.49-16.7a37 37 0 0 0 -11.63-10.66 35.57 35.57 0 0 0 -15.44-4.74c-6.63-.45-13.33.89-19.63 2.86-6.59 2.06-12.86 5.15-17.72 10.14-4.48 4.6-9 11.42-8.16 18.12.1.89 1.13 1.9 2.06 1.19q4.93-3.82 10.21-7.18 2.64-1.66 5.35-3.23c1.34-.76 3.54-2.55 5.16-1.74 3.26 1.64 1.31 7.18 1.46 9.88a12.1 12.1 0 0 0 4.46 8.69c1.3 1 3.6 1.68 4.29 3.3.76 1.8.42 3.79 1.53 5.51.93 1.44 3.24.12 2.32-1.36s-.62-3.55-1.29-5.23-2.19-2.64-3.73-3.55a9.64 9.64 0 0 1 -4.69-9.64c.3-3.47.7-7.82-2.82-9.9a5.42 5.42 0 0 0 -5.14.06 59.86 59.86 0 0 0 -5.93 3.37 138.61 138.61 0 0 0 -12.56 8.65l2.06 1.18c-.67-5.51 2.73-11 6.24-15a34.73 34.73 0 0 1 13.82-9.28c10.33-4 22.24-6 32.76-1.64a33.73 33.73 0 0 1 19.23 21.26 52.24 52.24 0 0 1 2.44 17.89c-.32 6.33-2 12.64-3.11 18.86-.29 1.58-.38 3.1-2 3.85a10 10 0 0 1 -4.53.71 24.32 24.32 0 0 1 -9-2.41 36.07 36.07 0 0 1 -13.73-10.83l-.19 1.54c4.71-3.67 6.12-11.12.89-15a6.81 6.81 0 0 0 -7.54-.61 6.45 6.45 0 0 0 -3.19 6.88c.25 1.13 1.89.63 1.71-.48z"/><path d="m638.26 203.71a11.08 11.08 0 0 1 -1.9-16.5c3.45-3.84 9.43-4.8 14.25-3 6.19 2.35 10.43 9.21 9.4 15.74s-7.51 11.84-14.09 11.21"/><path d="m638.93 203.05a10.37 10.37 0 0 1 -3.19-12.6c2-4.07 6.46-5.95 10.82-5.66 8.45.56 15 10.48 10.88 18.26a12.9 12.9 0 0 1 -4.75 5 12.18 12.18 0 0 1 -3.18 1.33 27 27 0 0 1 -3.59.41c-1.45.17-2 2.24-.37 2.69 2.52.72 5.48-.18 7.74-1.31a15.72 15.72 0 0 0 5.83-5.12 14.79 14.79 0 0 0 .83-15 16.19 16.19 0 0 0 -12.11-9c-5.3-.72-11 1.3-13.77 6a12.18 12.18 0 0 0 3.72 16.4c.87.59 2-.81 1.14-1.47z"/><path d="m635 204.16a7.7 7.7 0 0 1 2.47 2.11 37.11 37.11 0 0 0 2.72 2.6 35.41 35.41 0 0 0 3 2.33c.53.37 1.06.73 1.61 1.07a3.48 3.48 0 0 0 2 .85 1.21 1.21 0 0 0 1-1.8c-.32-.66-1.1-.93-1.7-1.28s-1.11-.67-1.65-1c-1.07-.71-2.14-1.43-3.16-2.21s-1.9-1.54-2.8-2.36a7.88 7.88 0 0 0 -3-2c-1.1-.34-1.49 1.28-.47 1.68z" fill="#18c4ff"/><path d="m627.7 321.19-.32-13.84a9.35 9.35 0 0 1 .29-3.21c.69-2.07 2.69-3.37 4.5-4.6 7.63-5.17 14.16-11.79 20.63-18.36.86-.88 1.8-2 1.52-3.19-.23-1-1.24-1.71-1.27-2.72 0-1.51 1.94-2.1 3.45-2.2 5.25-.36 5.55 1.15 9.66 4.43 2.52 2 4 5 5.18 8a5.13 5.13 0 0 1 .49 2 5.32 5.32 0 0 1 -.57 2c-7 15.58-14.59 26.61-30.37 33.13a2.58 2.58 0 0 1 -1.29.28 2.54 2.54 0 0 1 -1.26-.69 40.24 40.24 0 0 1 -5.87-6.16c-1.47 2.36-3.06 4.64-4.75 6.84" fill="#fff"/><path d="m628.64 321.19v-8.9-4a9.62 9.62 0 0 1 .46-4.17c1-2 3.46-3.21 5.23-4.47 2.06-1.46 4-3 6-4.67 4-3.42 7.82-7.14 11.54-10.9 1.54-1.55 4-3.36 3.92-5.79a5.24 5.24 0 0 0 -1-2.57c-.18-.31-.34-.42-.15-.7s1-.42 1.33-.48a7.79 7.79 0 0 1 4.88.49 24.2 24.2 0 0 1 3.66 3 15.79 15.79 0 0 1 4.3 5.46 19.56 19.56 0 0 1 1.33 3.21c.33 1.21-.34 2.27-.84 3.36-3.31 7.25-7.19 14.41-12.73 20.21a45.16 45.16 0 0 1 -10.18 8c-1 .6-2.09 1.16-3.17 1.68-.55.27-1.11.53-1.67.78s-1.3.78-1.86.67-1.24-1-1.65-1.38-1.11-1-1.65-1.53a42.9 42.9 0 0 1 -3.05-3.27 1.21 1.21 0 0 0 -1.87.24 64 64 0 0 1 -4.69 6.87c-.77 1 1 2.36 1.76 1.36 1.77-2.28 3.36-4.65 5-7h-2a36 36 0 0 0 5.87 6.58 3.65 3.65 0 0 0 3.12 1.09 16.8 16.8 0 0 0 3.8-1.53 49.52 49.52 0 0 0 11.41-7.4c6.69-5.8 11.42-13.45 15.24-21.36 1-2.1 2.76-4.73 2.48-7.13a13 13 0 0 0 -1.29-3.67 23.94 23.94 0 0 0 -1.92-3.56 27.66 27.66 0 0 0 -5.33-5.26 10.81 10.81 0 0 0 -4.16-2.54 11.49 11.49 0 0 0 -6.42.18c-2.2.81-3.3 2.87-2 5 .22.37.71.83.75 1.29s-.56 1.16-.89 1.53c-1 1.09-2.09 2.13-3.13 3.18-2.13 2.15-4.28 4.29-6.49 6.35-2.46 2.29-5 4.5-7.65 6.54-2.29 1.74-5.12 3.16-7 5.36-2.17 2.53-1.7 5.63-1.55 8.74l.55 11.12a.94.94 0 0 0 1.87 0z"/><path d="m630.69 352.26a20.8 20.8 0 0 0 -.43-8.13 9.45 9.45 0 0 0 -1.83-3.31c-1-1.15-2.47-2-3.22-3.32s.36-2.47 1.16-3.51a12.9 12.9 0 0 0 2-3.61c.89-2.56 1.13-6-.41-8.38-.61-.94-2.4-.67-2.29.62.24 2.82.67 5.4-.68 8.05-1.23 2.42-3.76 4.25-2.77 7.28.92 2.81 4.05 3.64 5.43 6.1s1.31 5.49 1.28 8.21a.9.9 0 0 0 1.8 0z"/><path d="m634 334.26a4.12 4.12 0 0 0 -1 .06 1.26 1.26 0 0 0 -.42.16l-.17.1a3 3 0 0 0 -.34.28 1.76 1.76 0 0 0 -.27.34.75.75 0 0 0 -.07.12 2.63 2.63 0 0 0 -.17.42 1.74 1.74 0 0 0 -.08.6 1.87 1.87 0 0 0 .25.87 1.56 1.56 0 0 0 .27.35 1 1 0 0 0 .17.14 1.49 1.49 0 0 0 .2.15 2.23 2.23 0 0 0 .45.18c.14 0 .28 0 .42.06h.12a2 2 0 0 0 .64-.09 2.53 2.53 0 0 0 .62-.3 3.57 3.57 0 0 0 .38-.3 3.12 3.12 0 0 0 .32-.4l.09-.14a1.6 1.6 0 0 0 .1-.23l.1-.24a1.76 1.76 0 0 0 .07-.68 2 2 0 0 0 -.27-.91v-.06a3.92 3.92 0 0 0 -.25-.32 2.23 2.23 0 0 0 -.24-.19 1.24 1.24 0 0 0 -.26-.19 3.17 3.17 0 0 0 -.46-.19.31.31 0 0 0 -.13 0 2.22 2.22 0 0 0 -.51-.06 3.32 3.32 0 0 0 -.44.06h-.06a2.32 2.32 0 0 0 -.36.16 2.6 2.6 0 0 0 -.33.25l-.05.05a4.08 4.08 0 0 0 -.25.33 2.25 2.25 0 0 0 -.19.45 1 1 0 0 0 0 .56 1 1 0 0 0 .16.52l.22.28a1.09 1.09 0 0 0 .45.29.7.7 0 0 0 .35.09 1.07 1.07 0 0 0 .56 0l.33-.14a1.41 1.41 0 0 0 .5-.5l-.22.29.07-.07-.29.22.09-.05-.34.14a1.14 1.14 0 0 1 .25-.06h-.38.17-.38.19l-.34-.14a.51.51 0 0 1 .16.09l-.29-.23.12.12-.22-.29a.75.75 0 0 1 .07.12l-.14-.34s0 .1 0 .15l-.05-.38v.2l.05-.37a.79.79 0 0 1 -.06.22l.14-.33a2.39 2.39 0 0 1 -.13.21l.21-.28a1.45 1.45 0 0 1 -.21.22l.27-.22a.87.87 0 0 1 -.26.16l.32-.14a.77.77 0 0 1 -.26.07h.35-.19.35a.4.4 0 0 1 -.15 0l.32.13-.1-.06.26.21-.08-.09.2.26a1 1 0 0 1 -.1-.17l.13.31a1.21 1.21 0 0 1 -.05-.18l.05.33a.89.89 0 0 1 0-.23l-.05.33a.83.83 0 0 1 .06-.21l-.12.29.09-.16-.18.24a1.67 1.67 0 0 1 .23-.23 2.41 2.41 0 0 1 .24-.21l-.21.16c.12-.1.25-.18.38-.27a.82.82 0 0 0 .36-.42.83.83 0 0 0 .05-.58 1.18 1.18 0 0 0 -.23-.39.92.92 0 0 0 -.63-.26z"/><path d="m972.48 869.38c1.67-8.3 3.35-16.81 2.07-25.19s-7.23-12.41-13.39-16.55a247.76 247.76 0 0 0 -8.77 24.73c-1.29 4.38-3 9.4-7.27 11-1.84.68-3.85.58-5.78.91-5.2.9-9.42 5-11.86 9.65a30.71 30.71 0 0 0 -1.59 3.68c6.54 8.22 8.43 18.56 14.88 28.23 4.84 7.28 13.39 16.79 20.07 11.16 2.39-2 3.15-5.31 3.76-8.37q3.95-19.63 7.88-39.25z"/><path d="m682 302.08c-10 7.6-16.55 18.83-22.8 29.76l-11.42 20c-2 3.52-4.08 7.19-4.39 11.24-.33 4.39 1.47 8.7 3.89 12.38 6.4 9.75 17 16 27.87 20.19 6.53 2.5 14 4.32 20.36 1.46 5.24-2.36 8.68-7.41 11.84-12.22 7-10.69 14.06-21.41 19.79-32.85" fill="#fff"/><path d="m681.51 301.33c-10.26 7.61-17 18.61-23.29 29.48-3.83 6.61-7.68 13.2-11.49 19.83a40.11 40.11 0 0 0 -4.25 9 17.13 17.13 0 0 0 .17 9.6c1.8 5.92 6 11.13 10.49 15.22a61.37 61.37 0 0 0 15.32 9.92c5.82 2.71 12.12 5.24 18.61 5.56a19.87 19.87 0 0 0 16.39-7.35 76.84 76.84 0 0 0 5.89-8.22c2.25-3.44 4.5-6.88 6.7-10.34a217.07 217.07 0 0 0 12.19-21.39c.74-1.53-1.5-2.88-2.3-1.35a353.38 353.38 0 0 1 -21.22 34.76c-3.22 4.73-7.05 9.36-12.93 10.61-6.17 1.31-12.69-1-18.33-3.34-10.46-4.28-21.09-11-26.49-21.26a16.85 16.85 0 0 1 -2.17-9.06c.24-3.08 1.64-6 3.1-8.61 3.43-6.26 7-12.44 10.54-18.66 6.69-11.86 13.23-24.49 24.13-33.07.77-.61-.26-2-1.06-1.37z"/><path d="m442.31 338.1a13.33 13.33 0 0 0 5.08 6.1 13.5 13.5 0 0 0 3.59 1.67c1.28.38 3.17.72 3.68-1a1.12 1.12 0 0 0 -.65-1.31 1.1 1.1 0 0 0 -1.38.46c-.09.15 0 .14.13 0s.23-.16.06-.1c0 0 .09 0-.06 0a3.16 3.16 0 0 1 -.58-.09 13.59 13.59 0 0 1 -1.54-.45 11.59 11.59 0 0 1 -2.64-1.38 12.5 12.5 0 0 1 -4-4.58c-.47-.93-2.13-.27-1.72.72z"/><path d="m446.74 329.4 2.07 2.52c.64.78 1.27 1.61 2 2.33a11.9 11.9 0 0 0 5.28 2.59 1.15 1.15 0 0 0 .61-2.22 10.18 10.18 0 0 1 -4.59-2.11c-1.44-1.37-2.73-2.94-4.07-4.4a.91.91 0 0 0 -1.29 0 .92.92 0 0 0 0 1.29z"/><path d="m452.87 318.2a20.85 20.85 0 0 0 4.29 7.49 20.18 20.18 0 0 0 3.19 2.86c1.1.81 2.93 2.32 4.22 1.06.91-.88-.29-2.53-1.37-1.78.43-.3.55.1.32-.1a2.15 2.15 0 0 0 -.37-.19l-.79-.46a17.4 17.4 0 0 1 -1.5-1 18.79 18.79 0 0 1 -2.53-2.35 18.14 18.14 0 0 1 -3.62-6c-.41-1.14-2.21-.67-1.84.51z"/><path d="m458.49 313.41a39.87 39.87 0 0 0 11.59 6.59c2.24.81 4.53 1.46 6.82 2.11s4.68 1.46 7.05 1.89a1.44 1.44 0 0 0 .77-2.77c-4.3-1.5-8.91-2.15-13.27-3.5a42.31 42.31 0 0 1 -11.82-5.74c-.86-.61-2 .8-1.14 1.47z"/><path d="m484.15 320.58c-5.33-9.7-10.79-19.32-16.24-28.94-1.37-2.41-2.72-4.83-4.09-7.23a15.73 15.73 0 0 0 -3.78-4.82c-4-3.07-9.24-1.38-13.61-.21q-7.77 2.08-15.43 4.56c-4.74 1.54-9.87 2.92-13.94 5.91-3.37 2.48-6.1 6.37-6 10.71a16.63 16.63 0 0 0 2.21 7.07c1.23 2.4 2.53 4.77 3.8 7.15l17.78 33.22c.83 1.57 3.22.17 2.38-1.4l-14.58-27.3c-2.44-4.56-5-9.07-7.29-13.7a10.9 10.9 0 0 1 -1.43-6.63 10.41 10.41 0 0 1 2.85-5.3c3.15-3.31 7.72-4.73 11.94-6.15q7.17-2.38 14.44-4.45c2.38-.68 4.77-1.35 7.18-1.94 2.17-.53 4.66-1 6.81-.16 1.82.74 3 2.47 4 4.09 1.31 2.15 2.55 4.35 3.83 6.53 5.83 10 11.65 20 17.6 29.87a.91.91 0 0 0 1.58-.92z"/><path d="m448.92 366.87a80.55 80.55 0 0 0 5.89 10.89c1.87 2.93 3.94 5.95 7 7.78 3.44 2.07 7.4 1.8 11.17 1 2.12-.47 4.23-1 6.34-1.56l3.37-.84a11.1 11.1 0 0 0 3.16-1 1.34 1.34 0 0 0 -.67-2.48 10.92 10.92 0 0 0 -3 .59l-2.88.75c-2 .52-3.95 1-5.93 1.54-3.49.88-7.28 1.58-10.54-.41-2.79-1.7-4.7-4.6-6.47-7.27-2.12-3.18-4-6.5-5.86-9.85-.56-1-2-.12-1.53.9z"/><path d="m477.69 385.41c2.6 10.43 5.53 20.87 9 31 3.15 9.19 7.05 18.14 13 25.86a66.73 66.73 0 0 0 78.07 20.79c1.6-.66.91-3.31-.73-2.64a64.87 64.87 0 0 1 -53.87-2.2 65.81 65.81 0 0 1 -19.78-15.78c-6-7.08-10.12-15.46-13.31-24.15-4-11-7.1-22.28-10.66-33.42a.92.92 0 0 0 -1.77.49z"/><path d="m627.71 482.92c1.72.82-4.23 8.36-5 9.26a35.29 35.29 0 0 1 -4.35 4.12c-1.62 1.3-3.42 2.36-5.13 3.53-1.05.73-.43 2.76.93 2.22 4.6-1.82 8.5-5.58 11.46-9.47a34.47 34.47 0 0 0 3.78-6.24c.78-1.68 1.41-4.41-.93-5.16-1-.32-1.72 1.27-.73 1.74z"/><path d="m724.09 457.84c1.58 4.61 6.22 7.63 10.09 10.21a32.69 32.69 0 0 0 6.77 3.57c1.88.71 5 2 6.45 0 .69-1-.69-2.35-1.66-1.66-.61.42-1.72-.05-2.38-.22a22.58 22.58 0 0 1 -3-1 34.66 34.66 0 0 1 -5.62-3.12 57.31 57.31 0 0 1 -5-3.64 12.37 12.37 0 0 1 -3.87-4.6c-.45-1.08-2.22-.67-1.82.5z"/><g fill="#fff"><path d="m739 474.64q-.46 42.93 2.76 85.8c1 13.94 2.22 27.92 4 41.8 1.55 12 4.13 24.42 11.28 34.52a39.26 39.26 0 0 0 13 11.92c2.19 1.2 4.75 2.68 7.31 1.9 1.93-.59 3.06-2.28 1.68-4a1.19 1.19 0 0 0 -1.87.24c-3.77 6.24 2 12.79 6.18 17l18.58 19q18.45 18.85 36.92 37.69c11.88 12.12 24.41 23.92 34.57 37.56 5 6.67 9.41 13.7 14.17 20.51a177.17 177.17 0 0 0 15.25 19c12.88 13.92 27.27 26.68 41.81 38.84 1.17 1 2.87-.68 1.69-1.69-12.52-10.86-25.06-21.79-36.71-33.6a180.33 180.33 0 0 1 -16-18.29c-4.86-6.48-9.21-13.3-13.81-20-9.24-13.33-20.38-24.85-31.69-36.41q-18-18.35-35.91-36.68l-20.09-20.52c-3.27-3.33-6.76-6.55-9.79-10.11-2.5-2.95-5.35-7.31-3.12-11.16l-1.87.24c-.23-.28-1 .17-1.29.21a3 3 0 0 1 -1.43-.2 20 20 0 0 1 -3.66-1.72 33.23 33.23 0 0 1 -6.14-4.4 43.23 43.23 0 0 1 -9.12-11.94c-5.62-10.59-7.2-22.79-8.51-34.54q-4.31-38.56-5.69-77.39-.79-21.81-.71-43.64a.89.89 0 0 0 -1.77 0z"/><path d="m539.65 939.71a.89.89 0 0 0 0-1.78.89.89 0 0 0 0 1.78z"/></g></svg>